<svg version="1.0" xmlns="http://www.w3.org/2000/svg" width="666.667" height="666.667" viewBox="0 0 500 500"><path d="M66 200.9c-.6 1.3-1 13.8-1 34 0 27.7.2 32.2 1.6 33.5 1.3 1.3 4.2 1.6 16.5 1.6H98v14.3c0 9.8.4 14.7 1.2 15.5.8.8 6.7 1.2 20 1.2 17.5 0 18.8-.1 19.8-1.9.6-1.3 1-13.8 1-33.9 0-29.6-.1-32-1.8-33.5-1.6-1.4-4.3-1.7-16.5-1.7H107v-13.6c0-7.4-.5-14.4-1-15.5-1-1.8-2.3-1.9-20-1.9s-19 .1-20 1.9zM98 219v11H74v-22h24v11zm0 31v11H74v-22h24v11zm33 0v11h-24v-22h24v11zm-.2 31.2l-.3 11.3h-23l-.3-11.3-.3-11.2h24.2l-.3 11.2zM189.4 215.1c-9.2 2.7-12.2 14-5.5 20.6l2.7 2.7-3.8 3.7c-3.2 3-3.8 4.2-3.8 7.8 0 9.4 6.1 14 18.3 14.1 7.5 0 12.1-1.5 15.5-5.2 4.7-5.2 3.4-15.1-2.6-18.5l-2.9-1.7 2.8-2.4c1.6-1.3 3.4-4.1 4-6.2 3.2-10.7-10.5-19-24.7-14.9zM204 223c2.4 2.4 2.6 7.7.3 10.2-2.4 2.6-11.3 2.5-13.8-.2-2.6-2.9-2.4-7.9.4-10.2 3.2-2.5 10.5-2.4 13.1.2zm1.2 21.7c1.1 1 1.8 3 1.8 5.4 0 5.1-3.2 7.3-10.3 7.2-4.2-.1-5.5-.5-7.4-2.7-1.3-1.5-2.3-3.3-2.3-4.1 0-3.2 2.5-6.6 5.4-7.5 4-1.2 10.6-.3 12.8 1.7zM273.8 215.1c-1.6.9-1.8 3.1-1.8 23.7 0 23.9.2 25.2 4.5 25.2s4.5-1.3 4.5-24.6c0-18.9-.2-22.5-1.6-23.8-1.8-1.8-3.2-2-5.6-.5zM344.5 215.3c-7.9 3.2-10.5 6.6-10.5 13.9 0 7.6 4.2 11 17.8 14.3 10.3 2.5 13.8 7.8 7.9 12-3.6 2.5-13.9 2-19.7-1-4.4-2.2-5-2.3-6.4-.9-.9.8-1.6 1.8-1.6 2 0 7 21.2 11.4 30.9 6.5 7.2-3.7 10-11.4 6.6-18-1.6-3.2-7.4-6.2-15.5-8.1-7.2-1.7-10.7-3.5-11.5-6-2.6-8.1 9.5-11.8 20.3-6.3 5.3 2.7 5.4 2.7 6.8.8 1.9-2.5.1-5.3-5.2-8-4.7-2.3-15.5-3-19.9-1.2zM224.7 215.7c-.4.3-.7 10.9-.7 23.3 0 18.8.3 23 1.5 24 2.3 1.9 27.1.9 31.2-1.3 8.1-4.3 8.4-17.9.6-22l-2.7-1.4 2.2-1.2c5.1-2.7 6.8-11.8 3.1-16.5-3.8-4.8-6.7-5.6-21.2-5.6-7.3 0-13.7.3-14 .7zm24.7 6.7c4.3 1.8 5.5 5.9 2.8 9.5-1.8 2.4-2.6 2.6-10.6 2.9l-8.6.3V221h6.5c3.6 0 8.1.6 9.9 1.4zm3.7 22.5c2.6 3.2 2.4 6.7-.6 9.6-2.2 2.3-3.2 2.5-11 2.5H233v-15.2l9.1.4c8.1.3 9.3.6 11 2.7zM286.6 216.6c-.8 2.1-.8 2 1 3.8 1.1 1.2 3.5 1.6 8.5 1.6h6.9v19.1c0 11.2.4 19.8 1 21 1.2 2.1 5 2.5 6.8.7.9-.9 1.2-6.9 1.2-21V222h7.3c8.3 0 10-.8 9.5-4.1l-.3-2.4-20.6-.3c-18.2-.2-20.7 0-21.3 1.4zM250.3 284.6c-1.5 2.4-1.5 2.9-.2 5.3 1.6 2.8 5.5 4 7.3 2.1.8-.9.6-1.1-1.2-.5-2.8.8-5.2-1-5.2-4s2.4-4.8 5.1-4c1.4.5 1.9.4 1.5-.4-1.3-2.1-5.5-1.2-7.3 1.5zM261.2 283.2c-2 2-1.5 7.6.7 8.8 4.1 2.1 8.1-.1 8.1-4.5 0-4.5-5.8-7.3-8.8-4.3zm5.6 1c2.8 2.8.3 8.6-3.1 7.2-1.9-.7-2.6-3.4-1.6-6.2.9-2.4 2.9-2.8 4.7-1zM273.2 287.2l-.2 5.8 3.3-.1c2.9-.1 3-.2.7-.8-2.1-.6-2.6-1.4-3.1-5.6l-.6-5-.1 5.7zM283 286.6c-2.1 4.8-2.7 8.2-.9 5.1 1.3-2.2 6.5-2.3 7.3-.1.4.9.9 1.4 1.2 1.1.7-.7-3.6-10.7-4.7-10.7-.4 0-1.7 2.1-2.9 4.6zm4.4 0c.9 2.3.8 2.4-1.4 2.4-1.1 0-2-.2-2-.4 0-1.2 1.3-3.6 2-3.6.4 0 1.1.7 1.4 1.6zM293 287.5v5.6l3.8-.3 3.7-.3v-10l-3.7-.3-3.8-.3v5.6zm5.5-2.5c0 .8-.8 1.6-1.7 1.8-1.3.2-1.8-.3-1.8-1.8s.5-2 1.8-1.8c.9.2 1.7 1 1.7 1.8zm1.1 4.1c.7 1.2-1.2 2.9-3.3 2.9-.7 0-1.3-.9-1.3-2 0-2.2 3.4-2.8 4.6-.9z"/></svg>